<?xml version="1.0" encoding="UTF-8"?>
<svg id="Layer_2" data-name="Layer 2" xmlns="http://www.w3.org/2000/svg" viewBox="0 0 90.07 111.45">
  <g id="Layer_1-2" data-name="Layer 1">
    <g id="_7_logo" data-name="7 logo">
      <path d="M12.37,99.11s-.02-.03-.02-.04c-.22-.36-.68-.47-1.04-.26s-.47.68-.26,1.04c.6,1.01,1.24,1.99,1.91,2.96.19.27.57.36.86.19.3-.18.4-.58.22-.88-.59-.98-1.14-1.98-1.66-3Z"/>
      <path d="M7.41,86.45s-.02-.05-.03-.08c-.23-.63-.93-.96-1.56-.73-.63.23-.96.93-.73,1.56.8,2.19,1.69,4.35,2.67,6.47.22.47.77.69,1.25.5.51-.2.76-.77.56-1.28-.82-2.12-1.54-4.27-2.17-6.45Z"/>
      <path d="M5.78,79.86c-.46-2.22-.83-4.45-1.11-6.68,0-.03,0-.07-.02-.1-.17-.89-1.03-1.48-1.92-1.32-.89.17-1.48,1.03-1.32,1.92h0c.43,2.31.95,4.59,1.57,6.85.2.73.94,1.19,1.68,1.03.78-.16,1.28-.93,1.12-1.7Z"/>
      <path d="M4.1,66.45h0c-.09-2.25-.09-4.49.02-6.72,0-.04,0-.08,0-.12-.01-1.14-.94-2.05-2.08-2.04S-.01,58.5,0,59.64H0c.02,2.37.16,4.73.4,7.07.1.97.94,1.71,1.92,1.67,1.02-.04,1.82-.91,1.78-1.93Z"/>
      <path d="M2.17,55.01c1.23.21,2.4-.62,2.61-1.85v-.07s.29-1.63.29-1.63c.1-.54.21-1.09.33-1.63.23-1.08.5-2.16.79-3.23.01-.04.02-.09.03-.13.28-1.33-.57-2.63-1.89-2.91-1.33-.28-2.63.57-2.91,1.89h0c-.25,1.17-.47,2.34-.65,3.52-.09.59-.18,1.18-.26,1.77l-.21,1.78c-.13,1.18.68,2.29,1.87,2.49Z"/>
      <path d="M9.54,30.37c-1.43-.63-3.11.01-3.74,1.44h0c-.98,2.21-1.82,4.46-2.54,6.74-.42,1.33.26,2.77,1.58,3.27,1.36.52,2.89-.17,3.41-1.53h0c.79-2.07,1.67-4.1,2.67-6.04.02-.04.05-.1.07-.14.63-1.43-.01-3.11-1.44-3.74Z"/>
      <path d="M14.23,19.44h0c-1.97,1.76-3.62,3.76-5,5.89-.87,1.35-.53,3.17.8,4.11,1.36.96,3.25.64,4.22-.72h.01c1.18-1.69,2.56-3.21,4.09-4.45.03-.03.07-.06.11-.09,1.31-1.16,1.43-3.17.26-4.47-1.16-1.31-3.17-1.43-4.47-.26Z"/>
      <path d="M88.92,62.33c.66-1.07,1.01-2.34.91-3.69v-.03c-.2-2.45-.48-4.88-.86-7.3-.21-1.35-.89-2.53-1.85-3.4.56-1.14.73-2.48.39-3.81l-.47-1.79c-.15-.6-.32-1.18-.5-1.77-.36-1.17-.74-2.34-1.14-3.49-.47-1.33-1.45-2.37-2.66-2.94.5-1.19.52-2.57-.06-3.83l-.02-.03c-1.03-2.22-2.14-4.4-3.39-6.5-.78-1.32-2.19-2.09-3.68-2.1.62-1.25.54-2.79-.36-3.98l-.02-.03c-.73-.98-1.5-1.93-2.29-2.87-.79-.93-1.62-1.83-2.47-2.71-1.08-1.11-2.83-1.32-4.15-.42-1.47,1.01-1.85,3.02-.84,4.5l.02.03c.61.89,1.19,1.81,1.75,2.74.56.93,1.1,1.87,1.6,2.83.09.17.2.35.32.5.68.9,1.69,1.42,2.73,1.5-.67,1.12-.83,2.53-.3,3.84l.02.04c.82,2,1.57,4.03,2.22,6.09.06.18.14.39.22.57.43.92,1.11,1.64,1.93,2.11-.55,1.05-.74,2.29-.45,3.53v.04c.25,1.05.47,2.11.67,3.16.09.53.2,1.06.28,1.59l.26,1.58.02.12c.03.17.06.33.11.5.24.93.72,1.75,1.34,2.4-.57.98-.86,2.14-.77,3.36v.03c.17,2.15.25,4.3.25,6.45,0,.15,0,.32.02.48.08,1.01.41,1.94.91,2.75-.63.91-1.04,1.99-1.12,3.17v.03c-.07,1.06-.17,2.12-.28,3.18-.12,1.05-.24,2.1-.39,3.15-.01.1-.03.23-.04.33-.1,1.02.05,2.01.39,2.91-.71.79-1.25,1.77-1.51,2.89v.02c-.24,1-.51,1.99-.79,2.97-.28.98-.59,1.94-.93,2.87,0,.02-.03.08-.03.1-.34.99-.43,2-.31,2.98-.81.58-1.5,1.35-1.99,2.29-.44.84-.92,1.66-1.42,2.43-.25.39-.51.77-.78,1.14-.26.37-.54.74-.8,1.06l-.11.13c-.54.68-.92,1.44-1.15,2.24-.79.17-1.57.49-2.28.98-.64.44-1.3.81-1.97,1.1-.67.29-1.34.53-2.03.68l-.2.04c-.7.16-1.35.44-1.93.81-.59-.39-1.26-.68-1.99-.84-.69-.15-1.38-.39-2.06-.7-.34-.16-.67-.33-1.06-.56-.37-.21-.73-.44-1.07-.68l-.11-.08c-.76-.52-1.6-.84-2.46-.96-.14-.86-.47-1.71-1.03-2.46-1.02-1.38-1.86-2.98-2.53-4.76l-.03-.07c-.39-1.03-1.08-1.88-1.92-2.49.47-.96.66-2.06.46-3.19-.35-2.03-.57-4.14-.7-6.3v-.03c-.08-1.27-.62-2.41-1.45-3.26.79-.88,1.28-2.04,1.28-3.31,0-2.23.06-4.49.12-6.77h0c.04-1.37-.5-2.61-1.39-3.52.95-.83,1.56-2.03,1.6-3.38.07-2.32.11-4.66.11-7.03,0-1.43-.68-2.72-1.74-3.55,1.01-.87,1.62-2.19,1.52-3.62h0c-.17-2.43-.43-4.89-.9-7.36-.3-1.53-1.41-2.73-2.81-3.2.94-1.12,1.24-2.72.62-4.16v-.03c-1.05-2.41-2.36-4.74-4.13-6.87-1.17-1.4-3.2-1.75-4.76-.82.57-1.76-.35-3.66-2.1-4.3l-.11-.04c-.73-.26-1.48-.48-2.25-.63-.77-.15-1.55-.23-2.32-.24-1.54-.02-3.05.24-4.43.67-1.68.53-2.66,2.29-2.2,4.01.47,1.76,2.28,2.81,4.05,2.33h.04c.82-.23,1.62-.32,2.37-.28.75.05,1.47.2,2.15.53.1.05.21.1.33.14.98.36,2.01.24,2.86-.23-.39,1.1-.26,2.35.46,3.38l.04.06c1.06,1.51,1.9,3.29,2.53,5.17.03.1.08.21.12.31.45,1.04,1.28,1.79,2.27,2.16-.81.89-1.23,2.12-1.06,3.41v.03c.29,2.06.45,4.2.5,6.37,0,.06,0,.14,0,.2.09,1.25.69,2.34,1.58,3.07-.97.79-1.61,1.97-1.67,3.32h0c-.09,2.23-.23,4.48-.39,6.75,0,.06,0,.14,0,.2-.04,1.28.45,2.44,1.25,3.31-.98.81-1.64,2-1.74,3.37-.16,2.31-.31,4.65-.42,7.02v.03c0,.06,0,.12,0,.19,0,1.3.5,2.47,1.31,3.36-.9.94-1.45,2.22-1.42,3.63.05,2.44.18,4.92.49,7.44v.04c.01.07.03.15.04.22.23,1.35.97,2.49,1.98,3.27-.66,1.23-.84,2.71-.4,4.14.79,2.58,1.91,5.18,3.48,7.61l.06.1c.06.1.13.19.2.29.87,1.17,2.1,1.91,3.43,2.17.16,1.49.89,2.92,2.15,3.94.57.46,1.15.89,1.75,1.3.58.4,1.24.81,1.92,1.19,1.35.75,2.81,1.38,4.33,1.85l.18.06c.14.04.29.08.44.11,1.51.34,3.02.07,4.27-.63,1.29.94,2.95,1.4,4.65,1.14,1.58-.24,3.13-.65,4.6-1.21,1.47-.56,2.86-1.25,4.16-2.04l.11-.07c.09-.05.18-.11.27-.17,1.22-.83,2.05-2,2.48-3.3,1.46-.26,2.85-1.01,3.89-2.23.47-.56.91-1.09,1.33-1.65.42-.55.83-1.11,1.21-1.68.77-1.14,1.47-2.3,2.12-3.48l.02-.04s.02-.04.03-.06c.66-1.25.88-2.6.72-3.9,1.08-.78,1.94-1.88,2.4-3.24h0c.42-1.24.8-2.48,1.14-3.72.34-1.24.63-2.48.89-3.72.28-1.35.12-2.68-.38-3.87.82-.97,1.36-2.19,1.5-3.56v-.03c.12-1.24.22-2.48.28-3.72.06-1.24.09-2.47.1-3.71,0-1.35-.42-2.61-1.16-3.65Z"/>
      <path d="M56.75,6.47c.85.7,1.67,1.43,2.46,2.18.79.76,1.54,1.55,2.27,2.36.1.11.22.22.34.32,1.14.88,2.78.66,3.66-.48.88-1.14.66-2.78-.48-3.66l-.02-.02c-.97-.74-1.98-1.43-3-2.09-1.03-.65-2.09-1.26-3.17-1.81-.78-.39-1.76-.21-2.34.49-.67.81-.55,2.02.26,2.69h.02Z"/>
      <path d="M48.19,1.24h0c.53.23,1.04.47,1.55.72.51.25,1.01.51,1.51.78.08.04.17.08.26.1.59.15,1.19-.2,1.35-.79.15-.59-.2-1.19-.79-1.35h0c-.58-.15-1.17-.29-1.76-.41-.59-.12-1.18-.21-1.77-.29-.28-.04-.57.11-.68.39-.14.33.01.71.34.85Z"/>
    </g>
  </g>
</svg>