<?xml version="1.0" encoding="UTF-8"?>
<svg id="Layer_1" data-name="Layer 1" xmlns="http://www.w3.org/2000/svg" viewBox="0 0 751.77 604.57">
  <defs>
    <style>
      .cls-1 {
        stroke: #000;
        stroke-linejoin: round;
        stroke-width: 9px;
      }
    </style>
  </defs>
  <polygon class="cls-1" points="443.42 383.49 409.64 329.35 375.9 275.22 375.87 275.22 342.13 221.08 207.07 221.08 173.33 166.94 173.3 166.94 139.56 112.8 105.79 58.66 173.33 58.66 207.07 112.8 240.84 166.94 308.36 166.94 274.62 112.8 240.84 58.66 207.07 4.5 4.5 4.5 38.27 58.66 72.01 112.8 72.04 112.8 105.79 166.94 139.56 221.08 173.3 275.22 173.33 275.22 308.36 275.22 342.13 329.35 375.87 383.49 375.9 383.49 375.9 383.52 409.64 437.66 375.9 491.79 375.87 491.79 342.13 437.66 308.36 383.52 308.36 383.49 274.62 329.35 207.07 329.35 240.84 383.49 240.84 383.52 274.59 437.66 274.62 437.66 308.36 491.79 342.13 545.93 375.87 600.07 375.9 600.07 409.64 545.93 443.42 491.79 477.16 437.66 443.42 383.52 443.42 383.49"/>
  <polygon class="cls-1" points="342.13 112.8 375.87 166.94 375.9 166.94 409.64 221.08 443.42 275.22 477.19 221.08 510.93 166.94 544.7 112.8 578.44 58.66 578.47 58.66 612.22 4.5 544.7 4.5 510.93 58.66 477.16 112.8 443.42 166.94 409.64 112.8 375.9 58.66 375.87 58.66 342.13 4.53 342.13 4.5 274.62 4.5 274.62 4.53 308.36 58.66 342.13 112.8"/>
  <polygon class="cls-1" points="679.76 4.5 679.76 4.53 645.99 58.64 645.99 58.66 612.22 112.8 578.47 166.94 578.44 166.94 544.7 221.08 510.93 275.22 477.19 329.35 477.16 329.35 510.93 383.49 544.7 329.35 578.44 275.22 578.47 275.22 612.22 221.08 645.99 166.94 679.73 112.8 679.76 112.8 679.76 112.78 713.5 58.66 747.27 4.5 679.76 4.5"/>
</svg>